<svg width="858" height="249" viewBox="0 0 858 249" fill="none" xmlns="http://www.w3.org/2000/svg">
<path d="M319.091 171V77.9091H355.818C362.879 77.9091 368.894 79.2576 373.864 81.9545C378.833 84.6212 382.621 88.3333 385.227 93.0909C387.864 97.8182 389.182 103.273 389.182 109.455C389.182 115.636 387.848 121.091 385.182 125.818C382.515 130.545 378.652 134.227 373.591 136.864C368.561 139.5 362.47 140.818 355.318 140.818H331.909V125.045H352.136C355.924 125.045 359.045 124.394 361.5 123.091C363.985 121.758 365.833 119.924 367.045 117.591C368.288 115.227 368.909 112.515 368.909 109.455C368.909 106.364 368.288 103.667 367.045 101.364C365.833 99.0303 363.985 97.2273 361.5 95.9545C359.015 94.6515 355.864 94 352.045 94H338.773V171H319.091ZM428.823 172.364C421.762 172.364 415.656 170.864 410.505 167.864C405.383 164.833 401.429 160.621 398.641 155.227C395.853 149.803 394.459 143.515 394.459 136.364C394.459 129.152 395.853 122.848 398.641 117.455C401.429 112.03 405.383 107.818 410.505 104.818C415.656 101.788 421.762 100.273 428.823 100.273C435.883 100.273 441.974 101.788 447.095 104.818C452.247 107.818 456.217 112.03 459.005 117.455C461.792 122.848 463.186 129.152 463.186 136.364C463.186 143.515 461.792 149.803 459.005 155.227C456.217 160.621 452.247 164.833 447.095 167.864C441.974 170.864 435.883 172.364 428.823 172.364ZM428.914 157.364C432.126 157.364 434.808 156.455 436.959 154.636C439.111 152.788 440.732 150.273 441.823 147.091C442.944 143.909 443.505 140.288 443.505 136.227C443.505 132.167 442.944 128.545 441.823 125.364C440.732 122.182 439.111 119.667 436.959 117.818C434.808 115.97 432.126 115.045 428.914 115.045C425.671 115.045 422.944 115.97 420.732 117.818C418.55 119.667 416.898 122.182 415.777 125.364C414.686 128.545 414.141 132.167 414.141 136.227C414.141 140.288 414.686 143.909 415.777 147.091C416.898 150.273 418.55 152.788 420.732 154.636C422.944 156.455 425.671 157.364 428.914 157.364ZM530.668 121.091L512.941 122.182C512.638 120.667 511.986 119.303 510.986 118.091C509.986 116.848 508.668 115.864 507.032 115.136C505.426 114.379 503.502 114 501.259 114C498.259 114 495.729 114.636 493.668 115.909C491.608 117.152 490.577 118.818 490.577 120.909C490.577 122.576 491.244 123.985 492.577 125.136C493.911 126.288 496.198 127.212 499.441 127.909L512.077 130.455C518.865 131.848 523.926 134.091 527.259 137.182C530.592 140.273 532.259 144.333 532.259 149.364C532.259 153.939 530.911 157.955 528.214 161.409C525.547 164.864 521.88 167.561 517.214 169.5C512.577 171.409 507.229 172.364 501.168 172.364C491.926 172.364 484.562 170.439 479.077 166.591C473.623 162.712 470.426 157.439 469.486 150.773L488.532 149.773C489.108 152.591 490.502 154.742 492.714 156.227C494.926 157.682 497.759 158.409 501.214 158.409C504.608 158.409 507.335 157.758 509.395 156.455C511.486 155.121 512.547 153.409 512.577 151.318C512.547 149.561 511.805 148.121 510.35 147C508.895 145.848 506.653 144.97 503.623 144.364L491.532 141.955C484.714 140.591 479.638 138.227 476.305 134.864C473.002 131.5 471.35 127.212 471.35 122C471.35 117.515 472.562 113.652 474.986 110.409C477.441 107.167 480.88 104.667 485.305 102.909C489.759 101.152 494.971 100.273 500.941 100.273C509.759 100.273 516.698 102.136 521.759 105.864C526.85 109.591 529.82 114.667 530.668 121.091ZM578.389 101.182V115.727H536.343V101.182H578.389ZM545.889 84.4545H565.252V149.545C565.252 151.333 565.525 152.727 566.07 153.727C566.616 154.697 567.373 155.379 568.343 155.773C569.343 156.167 570.495 156.364 571.798 156.364C572.707 156.364 573.616 156.288 574.525 156.136C575.434 155.955 576.131 155.818 576.616 155.727L579.661 170.136C578.692 170.439 577.328 170.788 575.57 171.182C573.813 171.606 571.677 171.864 569.161 171.955C564.495 172.136 560.404 171.515 556.889 170.091C553.404 168.667 550.692 166.455 548.752 163.455C546.813 160.455 545.858 156.667 545.889 152.091V84.4545ZM604.211 171H583.12L615.257 77.9091H640.62L672.711 171H651.62L628.302 99.1818H627.575L604.211 171ZM602.893 134.409H652.711V149.773H602.893V134.409ZM680.352 197.182V101.182H699.443V112.909H700.307C701.155 111.03 702.383 109.121 703.989 107.182C705.625 105.212 707.746 103.576 710.352 102.273C712.989 100.939 716.261 100.273 720.17 100.273C725.261 100.273 729.958 101.606 734.261 104.273C738.564 106.909 742.004 110.894 744.58 116.227C747.155 121.53 748.443 128.182 748.443 136.182C748.443 143.97 747.186 150.545 744.67 155.909C742.186 161.242 738.792 165.288 734.489 168.045C730.216 170.773 725.428 172.136 720.125 172.136C716.367 172.136 713.17 171.515 710.534 170.273C707.928 169.03 705.792 167.47 704.125 165.591C702.458 163.682 701.186 161.758 700.307 159.818H699.716V197.182H680.352ZM699.307 136.091C699.307 140.242 699.883 143.864 701.034 146.955C702.186 150.045 703.852 152.455 706.034 154.182C708.216 155.879 710.867 156.727 713.989 156.727C717.14 156.727 719.807 155.864 721.989 154.136C724.17 152.379 725.822 149.955 726.943 146.864C728.095 143.742 728.67 140.152 728.67 136.091C728.67 132.061 728.11 128.515 726.989 125.455C725.867 122.394 724.216 120 722.034 118.273C719.852 116.545 717.17 115.682 713.989 115.682C710.837 115.682 708.17 116.515 705.989 118.182C703.837 119.848 702.186 122.212 701.034 125.273C699.883 128.333 699.307 131.939 699.307 136.091ZM758.152 171V101.182H777.516V171H758.152ZM767.88 92.1818C765.001 92.1818 762.531 91.2273 760.47 89.3182C758.44 87.3788 757.425 85.0606 757.425 82.3636C757.425 79.697 758.44 77.4091 760.47 75.5C762.531 73.5606 765.001 72.5909 767.88 72.5909C770.758 72.5909 773.213 73.5606 775.243 75.5C777.304 77.4091 778.334 79.697 778.334 82.3636C778.334 85.0606 777.304 87.3788 775.243 89.3182C773.213 91.2273 770.758 92.1818 767.88 92.1818ZM821.373 172.364C814.221 172.364 808.07 170.848 802.918 167.818C797.797 164.758 793.858 160.515 791.1 155.091C788.373 149.667 787.009 143.424 787.009 136.364C787.009 129.212 788.388 122.939 791.145 117.545C793.933 112.121 797.888 107.894 803.009 104.864C808.13 101.803 814.221 100.273 821.282 100.273C827.373 100.273 832.706 101.379 837.282 103.591C841.858 105.803 845.479 108.909 848.145 112.909C850.812 116.909 852.282 121.606 852.555 127H834.282C833.767 123.515 832.403 120.712 830.191 118.591C828.009 116.439 825.145 115.364 821.6 115.364C818.6 115.364 815.979 116.182 813.736 117.818C811.524 119.424 809.797 121.773 808.555 124.864C807.312 127.955 806.691 131.697 806.691 136.091C806.691 140.545 807.297 144.333 808.509 147.455C809.752 150.576 811.494 152.955 813.736 154.591C815.979 156.227 818.6 157.045 821.6 157.045C823.812 157.045 825.797 156.591 827.555 155.682C829.342 154.773 830.812 153.455 831.964 151.727C833.145 149.97 833.918 147.864 834.282 145.409H852.555C852.252 150.742 850.797 155.439 848.191 159.5C845.615 163.53 842.055 166.682 837.509 168.955C832.964 171.227 827.585 172.364 821.373 172.364Z" fill="white"/>
<path d="M0 0V249H249V0H0ZM31.125 31.125H217.875V124.5L186.75 93.375L155.625 124.5L217.875 186.75V217.875H186.75L62.25 93.375L31.125 124.5V31.125Z" fill="#1D4ED8"/>
</svg>
